<!-- Generated by IcoMoon.io -->
<svg version="1.1" xmlns="http://www.w3.org/2000/svg" width="32" height="32" viewBox="0 0 32 32">
<path fill="#0a66c2" d="M24.45 24.45h-3.556v-5.57c0-1.328-0.024-3.038-1.85-3.038-1.852 0-2.136 1.448-2.136 2.94v5.668h-3.556v-11.454h3.414v1.566h0.048c0.696-1.188 1.992-1.9 3.368-1.85 3.604 0 4.27 2.37 4.27 5.456l-0.002 6.28zM9.34 11.43c-1.137-0.006-2.057-0.925-2.064-2.061v-0.001c0-1.132 0.932-2.064 2.064-2.064s2.062 0.932 2.064 2.064c0 1.132-0.932 2.064-2.064 2.064zM11.118 24.45h-3.56v-11.454h3.56v11.454zM26.22 4h-20.45c-0.003-0-0.007-0-0.010-0-0.962 0-1.744 0.772-1.76 1.731l-0 0.001v20.536c0.016 0.96 0.798 1.732 1.76 1.732 0.004 0 0.007 0 0.011-0h20.451c0.004 0 0.009 0 0.014 0 0.963 0 1.746-0.772 1.764-1.73l0-0.002v-20.538c-0.018-0.958-0.799-1.728-1.76-1.728-0.006 0-0.013 0-0.019 0h0.001z"></path>
</svg>
